<?xml version="1.0" encoding="utf-8"?>
<!-- Generator: Adobe Illustrator 15.0.0, SVG Export Plug-In . SVG Version: 6.00 Build 0)  -->
<!DOCTYPE svg PUBLIC "-//W3C//DTD SVG 1.1//EN" "http://www.w3.org/Graphics/SVG/1.1/DTD/svg11.dtd">
<svg version="1.1" xmlns="http://www.w3.org/2000/svg" xmlns:xlink="http://www.w3.org/1999/xlink" x="0px" y="0px" width="64px"
	 height="64px" viewBox="0 0 64 64" enable-background="new 0 0 64 64" xml:space="preserve">
<g id="all">
	<g id="Layer_2">
	</g>
	<g id="ma5">
		
			<rect x="3.804" y="5.41" transform="matrix(0.9863 -0.1652 0.1652 0.9863 -1.6452 2.5833)" fill="#FF0000" width="21.81" height="11.546"/>
		<polygon fill="#69BD54" points="31.282,32.474 5.977,36.711 6.8,10.557 21.983,8.015 		"/>
		
			<ellipse transform="matrix(0.9863 -0.1652 0.1652 0.9863 -2.8967 2.4079)" fill="#FFFFFF" cx="13.028" cy="18.619" rx="4.169" ry="5.773"/>
		
			<ellipse transform="matrix(0.9863 -0.1651 0.1651 0.9863 -2.4279 3.3844)" fill="#FFFFFF" cx="19.142" cy="16.295" rx="4.17" ry="5.773"/>
		<ellipse transform="matrix(0.9863 -0.1652 0.1652 0.9863 -2.4088 3.5376)" cx="20.066" cy="16.252" rx="3.163" ry="4.38"/>
		<ellipse transform="matrix(0.9863 -0.1652 0.1652 0.9863 -2.8994 2.4707)" cx="13.406" cy="18.668" rx="3.163" ry="4.38"/>
		<path fill="#FFB300" d="M20.306,21.303c0.526,3.145-0.462,5.931-2.209,6.224c-1.747,0.292-3.59-2.02-4.117-5.164
			c-0.212-1.266,1.892-8.122,1.892-8.122S20.094,20.038,20.306,21.303z"/>
		<g>
			<ellipse transform="matrix(0.9863 -0.1652 0.1652 0.9863 -4.9427 3.4214)" cx="18.099" cy="31.429" rx="8.981" ry="5.773"/>
			<path fill="#C2000B" d="M16.782,38.813c-4.753,0-8.462-2.325-9.02-5.653c-0.673-4.023,3.34-7.935,9.136-8.905
				c0.84-0.141,1.688-0.212,2.518-0.212c4.753,0,8.462,2.325,9.02,5.654c0.342,2.042-0.507,4.108-2.391,5.819
				c-1.703,1.547-4.099,2.643-6.745,3.085C18.46,38.742,17.613,38.813,16.782,38.813z M19.417,27.043
				c-0.665,0-1.346,0.058-2.023,0.171c-3.999,0.669-7.054,3.165-6.672,5.45c0.306,1.825,2.854,3.149,6.061,3.149
				c0.665,0,1.346-0.058,2.023-0.171c2.055-0.344,3.959-1.199,5.223-2.347c0.638-0.58,1.675-1.753,1.449-3.103
				C25.171,28.368,22.623,27.043,19.417,27.043z"/>
		</g>
	</g>
	<g id="MA4">
		<circle fill="#A75A10" cx="35.381" cy="9.835" r="8.834"/>
		<circle fill="#A75A10" cx="52.68" cy="13.431" r="8.834"/>
		<circle fill="#FF0000" cx="42.232" cy="20.282" r="11.043"/>
		<g>
			<path d="M42.366,19.005l-0.934,0.613l-0.994-1.52c-0.445,0.205-1.001,0.314-1.674,0.223l-0.247,1.188l-1.094-0.227l0.266-1.279
				c-0.446-0.215-0.777-0.504-1.02-0.82l-1.674,1.097l-0.612-0.934l1.802-1.181c-0.059-0.253-0.079-0.484-0.07-0.669l1.116,0.045
				c-0.003,0.128,0.012,1.33,1.5,1.64c1.539,0.32,2.012-0.856,2.033-0.905l1.042,0.403c-0.088,0.222-0.242,0.489-0.471,0.75
				L42.366,19.005z"/>
		</g>
		<g>
			<path d="M43.448,15.073l0.934-0.613l0.993,1.52c0.445-0.204,1-0.313,1.674-0.223l0.247-1.188l1.094,0.227l-0.266,1.279
				c0.446,0.215,0.777,0.505,1.021,0.821l1.673-1.098l0.612,0.934l-1.801,1.182c0.059,0.252,0.078,0.484,0.07,0.668l-1.116-0.045
				c0.003-0.128-0.013-1.33-1.501-1.64c-1.538-0.319-2.011,0.856-2.033,0.905l-1.042-0.403c0.088-0.222,0.243-0.489,0.472-0.75
				L43.448,15.073z"/>
		</g>
		<circle fill="#F88020" cx="41.784" cy="22.445" r="2.76"/>
		<path fill="#C2000B" d="M45.098,28.209c-0.123,0.589-0.473,1.074-0.932,1.385c-0.557,0.917-2.235,1.341-4.067,0.96
			c-1.833-0.381-3.203-1.438-3.35-2.501c-0.296-0.473-0.424-1.053-0.301-1.642c0.248-1.194,1.417-1.961,2.611-1.713
			c0.8,0.167,1.411,0.751,1.649,1.477c0.093,0.014,0.19,0.034,0.288,0.055c0.097,0.021,0.194,0.04,0.286,0.064
			c0.507-0.571,1.3-0.863,2.101-0.696C44.579,25.846,45.346,27.015,45.098,28.209z"/>
	</g>
	<g id="ma3">
		<rect x="8" y="36" transform="matrix(0.9867 0.1625 -0.1625 0.9867 8.1973 -2.7238)" fill="#20A0BF" width="25.5" height="25.5"/>
		<circle fill="#FFFFFF" cx="17.335" cy="43.988" r="4.144"/>
		<circle fill="#FFFFFF" cx="25.512" cy="45.334" r="4.143"/>
		<circle cx="20.217" cy="44.14" r="1.275"/>
		<circle cx="28.394" cy="45.485" r="1.275"/>
		<path fill="#F75A3F" d="M25.368,52.096c-0.343,2.083-2.253-0.371-5.032-0.829c-2.779-0.457-5.375,1.255-5.032-0.828
			c0.343-2.085,2.875-3.404,5.653-2.947C23.736,47.949,25.711,50.01,25.368,52.096z"/>
		<g>
			<path d="M12.756,51.311c0.028,0.032,3.025,3.429,6.902,4.067c3.903,0.643,7.803-1.617,7.842-1.64l1.292,2.197
				c-0.192,0.112-4.745,2.75-9.549,1.959c-4.803-0.791-8.272-4.749-8.417-4.917L12.756,51.311z"/>
		</g>
	</g>
	<g>
		<circle fill="#F5F619" cx="35.832" cy="52.041" r="3.188"/>
		<circle fill="#F5F619" cx="37.146" cy="58.281" r="3.189"/>
		<circle fill="#F5F619" cx="34.518" cy="45.801" r="3.189"/>
		<circle fill="#F5F619" cx="56.961" cy="49.219" r="3.189"/>
		<circle fill="#F5F619" cx="58.276" cy="55.459" r="3.189"/>
		<circle fill="#F5F619" cx="55.647" cy="42.979" r="3.189"/>
		<circle fill="#F5F619" cx="31.342" cy="41.038" r="3.189"/>
		<circle fill="#F5F619" cx="37.692" cy="40.245" r="3.189"/>
		<circle fill="#F5F619" cx="43.933" cy="38.93" r="3.189"/>
		<circle fill="#F5F619" cx="50.282" cy="38.136" r="3.189"/>
		<circle fill="#F5F619" cx="56.522" cy="36.821" r="3.189"/>
		<polygon fill="#36A12B" points="33.751,42.161 54.552,37.779 54.773,59.457 42.293,62.086 		"/>
		
			<ellipse transform="matrix(0.9785 -0.2061 0.2061 0.9785 -8.9095 9.9589)" fill="#FFFFFF" cx="43.345" cy="47.742" rx="3.454" ry="4.783"/>
		
			<ellipse transform="matrix(0.9785 -0.2061 0.2061 0.9785 -8.3625 10.9398)" fill="#FFFFFF" cx="48.326" cy="45.607" rx="3.454" ry="4.783"/>
		<ellipse transform="matrix(0.9785 -0.2062 0.2062 0.9785 -8.3371 11.1035)" cx="49.089" cy="45.541" rx="2.621" ry="3.628"/>
		<ellipse transform="matrix(0.9785 -0.2062 0.2062 0.9785 -8.9137 10.0315)" cx="43.659" cy="47.77" rx="2.621" ry="3.629"/>
		
			<rect x="44.118" y="49.739" transform="matrix(0.9785 -0.2062 0.2062 0.9785 -9.7914 10.8235)" fill="#FCD22D" width="5.845" height="5.313"/>
		<g>
			<rect x="39.185" y="55.971" transform="matrix(0.9452 0.3266 -0.3266 0.9452 21.203 -12.201)" width="15.493" height="2.126"/>
		</g>
	</g>
</g>
<g id="dots">
</g>
</svg>
